<svg width="88" height="166" viewBox="0 0 88 166" fill="none" xmlns="http://www.w3.org/2000/svg">
<path d="M22 20.8264V45.8182H35C46.0457 45.8182 55 55.1425 55 66.6446C55 67.7948 54.1046 68.7273 53 68.7273H22V98.1818C22 101.19 22.569 104.169 23.6746 106.949C24.7802 109.728 26.4008 112.254 28.4436 114.381C30.4865 116.508 32.9118 118.196 35.581 119.347C38.2501 120.498 41.1109 121.091 44 121.091C46.8891 121.091 49.7499 120.498 52.419 119.347C55.0882 118.196 57.5135 116.508 59.5563 114.381C61.5992 112.254 63.2197 109.728 64.3253 106.949C65.431 104.169 66 101.19 66 98.1818V54.781C66 43.2789 74.9543 33.9545 86 33.9545C87.1046 33.9545 88 34.887 88 36.0372V98.1818C88 104.199 86.8619 110.157 84.6507 115.716C82.4395 121.275 79.1985 126.326 75.1127 130.58C71.0269 134.835 66.1764 138.21 60.8381 140.512C55.4997 142.815 49.7782 144 44 144C38.2218 144 32.5002 142.815 27.1619 140.512C21.8236 138.21 16.9731 134.835 12.8873 130.58C8.80151 126.326 5.5605 121.275 3.34929 115.716C1.13809 110.157 -2.20423e-06 104.199 0 98.1818V2.08265C0 0.932436 0.895431 0 2 0C13.0457 0 22 9.32432 22 20.8264Z" fill="#CF0000"/>
<path d="M88 11.4545C88 17.7807 83.0751 22.9091 77 22.9091C70.9249 22.9091 66 17.7807 66 11.4545C66 5.12837 70.9249 0 77 0C83.0751 0 88 5.12837 88 11.4545Z" fill="#CF0000"/>
<path fill-rule="evenodd" clip-rule="evenodd" d="M44 134.182C45.5123 134.182 47.0196 134.078 48.5125 133.874L48.1024 130.629C46.7452 130.815 45.3748 130.909 44 130.909C42.6252 130.909 41.2548 130.815 39.8976 130.629L39.4875 133.874C40.9804 134.078 42.4877 134.182 44 134.182ZM31.973 128.418C30.7029 127.87 29.4712 127.237 28.2857 126.525L26.7143 129.359C28.0183 130.143 29.3731 130.839 30.7702 131.442C32.1673 132.044 33.5977 132.55 35.0521 132.955L35.8659 129.794C34.5436 129.425 33.2431 128.966 31.973 128.418ZM57.2298 131.442C58.6269 130.839 59.9817 130.143 61.2857 129.359L59.7143 126.525C58.5288 127.237 57.2971 127.87 56.027 128.418C54.7569 128.966 53.4564 129.425 52.1341 129.794L52.9479 132.955C54.4023 132.55 55.8327 132.044 57.2298 131.442ZM21.7767 121.323C20.8046 120.311 19.8992 119.236 19.0658 118.105L16.5725 120.097C17.4892 121.341 18.4849 122.524 19.5542 123.638C20.6236 124.751 21.7595 125.788 22.9541 126.743L24.8674 124.146C23.7814 123.279 22.7488 122.336 21.7767 121.323ZM68.4458 123.638C69.5151 122.524 70.5108 121.341 71.4275 120.097L68.9342 118.105C68.1008 119.236 67.1954 120.311 66.2233 121.323C65.2512 122.336 64.2186 123.279 63.1326 124.146L65.0459 126.743C66.2405 125.788 67.3764 124.751 68.4458 123.638ZM14.9639 110.706C14.4378 109.383 13.9965 108.029 13.6422 106.652L10.6064 107.499C10.9961 109.014 11.4813 110.503 12.06 111.958C12.6387 113.413 13.3075 114.824 14.0604 116.182L16.782 114.545C16.0975 113.311 15.49 112.028 14.9639 110.706ZM75.94 111.958C76.5186 110.503 77.0039 109.014 77.3936 107.499L74.3578 106.652C74.0035 108.029 73.5622 109.383 73.0361 110.706C72.51 112.028 71.9025 113.311 71.218 114.545L73.9396 116.182C74.6925 114.824 75.3613 113.413 75.94 111.958ZM78.2756 102.881C78.4722 101.326 78.5714 99.7566 78.5714 98.1818V93.659H75.4286V96.5455L75.3891 99.8182C75.3466 100.7 75.2701 101.58 75.1596 102.454L78.2756 102.881ZM9.42857 89.3864H12.5714V80.1818H9.42857V89.3864ZM75.4286 80.0907V89.1363H78.5714V80.0907H75.4286ZM9.42857 75.5795H12.5714V66.375H9.42857V75.5795ZM75.4286 66.5228V75.5684H78.5714V66.5228H75.4286ZM75.4286 52.9545V62H78.5714V52.9545H75.4286ZM15.4196 55.6364H12.5714V52.5682H9.42857V61.7727H12.5714V58.9091H15.4196V55.6364ZM19.8393 58.9091H28.6786V55.6364H19.8393V58.9091ZM33.0982 58.9091H41.9375V55.6364H33.0982V58.9091ZM53.5744 58.9091C53.1343 57.7643 52.5987 56.6703 51.9791 55.6364H46.3571V58.9091H53.5744ZM75.4286 39.3862V48.4317H78.5714V39.3862H75.4286ZM9.42857 47.9659H12.5714V38.7614H9.42857V47.9659ZM9.42857 34.1591H12.5714V24.9545H9.42857V34.1591ZM83.2857 11.4545C83.2857 7.83959 80.4715 4.90909 77 4.90909C73.5285 4.90909 70.7143 7.83959 70.7143 11.4545C70.7143 14.5044 72.7175 17.0668 75.4286 17.7935V21.2955H78.5714V17.7935C81.2825 17.0668 83.2857 14.5044 83.2857 11.4545ZM9.42857 20.3523H12.5714V11.1477H9.42857V20.3523ZM12.5714 3.14529C11.5786 2.50022 10.5279 1.94279 9.42857 1.48455V6.54545H12.5714V3.14529Z" fill="white"/>
<path d="M78.5714 34.8638H75.4286V25.8183H78.5714V34.8638Z" fill="white"/>
<path d="M12.5714 96.5455L12.6113 99.8182C12.6537 100.7 12.7299 101.58 12.8404 102.454L9.72437 102.881C9.54484 101.461 9.44733 100.028 9.43164 98.5909L9.42857 93.9886H12.5714V96.5455Z" fill="white"/>
<path d="M81.4762 166L77.7733 155.976H79.4953L81.8683 162.64L82.2743 163.886H82.3232L82.7363 162.654L85.1513 155.976H86.8242L83.0373 166H81.4762Z" fill="black"/>
<path d="M60.3159 166V155.976H62.0449L66.8119 163.305H66.8539L66.7909 161.604V155.976H68.3519V166H66.8539L61.8699 158.447H61.8209L61.8769 160.106V166H60.3159Z" fill="black"/>
<path d="M4.85741 157.467H7.77641V155.976H0.321411V157.467H3.24741V166H4.85741V157.467Z" fill="black"/>
<path d="M9.00592 155.976V166H10.6159V161.625H15.3969V166H17.0069V155.976H15.3969V160.134H10.6159V155.976H9.00592Z" fill="black"/>
<path d="M22.0056 155.976L18.0856 166H19.8006L20.6803 163.634H24.8827L25.7576 166H27.4936L23.5876 155.976H22.0056ZM24.378 162.269H21.1878L22.3486 159.147L22.7546 157.88H22.8036L23.2236 159.147L24.378 162.269Z" fill="black"/>
<path d="M28.578 155.976V166H30.188V162.549H32.162C33.1887 162.549 34.01 162.255 34.626 161.667C35.2467 161.079 35.557 160.281 35.557 159.273C35.557 158.274 35.256 157.476 34.654 156.879C34.0567 156.277 33.2657 155.976 32.281 155.976H28.578ZM30.188 161.135V157.439H32.092C32.6473 157.439 33.0907 157.609 33.422 157.95C33.758 158.286 33.926 158.739 33.926 159.308C33.926 159.877 33.758 160.325 33.422 160.652C33.0907 160.974 32.6357 161.135 32.057 161.135H30.188Z" fill="black"/>
<path d="M39.0894 155.976L35.1694 166H36.8844L37.7641 163.634H41.9665L42.8414 166H44.5774L40.6714 155.976H39.0894ZM41.4618 162.269H38.2716L39.4324 159.147L39.8384 157.88H39.8874L40.3074 159.147L41.4618 162.269Z" fill="black"/>
<path d="M45.6619 155.976V166H47.2719V162.199H48.7876L51.3949 166H53.3129L50.4702 162.009C50.913 161.866 51.3052 161.643 51.6469 161.338C52.2955 160.764 52.6199 160.008 52.6199 159.07C52.6199 158.127 52.3095 157.376 51.6889 156.816C51.0729 156.256 50.2725 155.976 49.2879 155.976H45.6619ZM47.2719 160.869V157.432H49.1899C49.7079 157.432 50.1372 157.584 50.4779 157.887C50.8185 158.186 50.9889 158.594 50.9889 159.112C50.9889 159.653 50.8092 160.083 50.4499 160.4C50.0952 160.713 49.6519 160.869 49.1199 160.869H47.2719Z" fill="black"/>
<path d="M73.3566 155.976L69.4366 166H71.1516L72.0313 163.634H76.2337L77.1086 166H78.8446L74.9386 155.976H73.3566ZM75.729 162.269H72.5388L73.6996 159.147L74.1056 157.88H74.1546L74.5746 159.147L75.729 162.269Z" fill="black"/>
</svg>
